<svg width="215" height="64" viewBox="0 0 215 64" fill="none" xmlns="http://www.w3.org/2000/svg">
<path d="M14.832 40.64H18.544C21.488 40.64 24.2613 40.4053 26.864 39.936C29.4667 39.4666 31.3867 38.8053 32.624 37.952L33.072 34.432C33.1147 34.2613 33.2427 34.1333 33.456 34.048C33.712 33.9626 33.9893 33.92 34.288 33.92C34.928 33.92 35.2267 34.0906 35.184 34.432C34.9707 36.0106 34.8213 37.696 34.736 39.488C34.6507 41.28 34.608 42.9866 34.608 44.608C34.608 44.9066 34.288 45.056 33.648 45.056C33.392 45.056 33.1573 45.0133 32.944 44.928C32.7307 44.8853 32.624 44.7786 32.624 44.608V43.2H11.824C10.032 43.2 8.60268 43.2 7.53601 43.2C6.46935 43.2426 5.59468 43.264 4.91201 43.264C4.22935 43.3066 3.54668 43.328 2.86401 43.328C2.69335 43.328 2.56535 43.2213 2.48001 43.008C2.39468 42.7946 2.35201 42.56 2.35201 42.304C2.35201 42.0053 2.39468 41.7493 2.48001 41.536C2.56535 41.28 2.69335 41.152 2.86401 41.152H5.61601C6.72535 41.152 7.42935 40.9386 7.72801 40.512C8.06935 40.0853 8.24001 39.3173 8.24001 38.208V7.87195C8.24001 6.20795 8.15468 4.99195 7.98401 4.22395C7.85601 3.41328 7.68535 2.87995 7.47201 2.62395C7.30135 2.36795 7.10935 2.23995 6.89601 2.23995H3.18401C2.84268 2.23995 2.67201 1.83462 2.67201 1.02395C2.67201 0.810616 2.69335 0.618615 2.73601 0.447948C2.82135 0.234615 2.97068 0.127949 3.18401 0.127949C4.54935 0.127949 5.91468 0.149282 7.28001 0.191948C8.64535 0.191948 9.96801 0.191948 11.248 0.191948C13.0827 0.191948 14.512 0.191948 15.536 0.191948C16.6027 0.149282 17.4773 0.106616 18.16 0.0639496C18.8427 0.0212835 19.5253 -4.95911e-05 20.208 -4.95911e-05C20.4213 -4.95911e-05 20.5493 0.106617 20.592 0.31995C20.6773 0.533283 20.72 0.767949 20.72 1.02395C20.72 1.32262 20.6773 1.59995 20.592 1.85595C20.5067 2.06928 20.3787 2.17595 20.208 2.17595H17.456C16.3893 2.17595 15.6853 2.38928 15.344 2.81595C15.0027 3.24261 14.832 4.01062 14.832 5.11995V40.64ZM66.8095 16.2559C66.7668 16.9386 66.6602 18.6666 66.4895 21.44C66.3615 24.2133 66.2975 27.6266 66.2975 31.68C66.2975 34.4106 65.7002 36.6933 64.5055 38.528C63.3108 40.32 61.7748 41.6853 59.8975 42.624C58.0202 43.5626 56.0362 44.032 53.9455 44.032C51.9402 44.032 49.9775 43.6053 48.0575 42.752C46.1375 41.8986 44.5588 40.5973 43.3215 38.848C42.0842 37.0986 41.4655 34.9226 41.4655 32.32V19.0079C41.4655 17.216 41.3375 15.9786 41.0815 15.2959C40.8255 14.6133 40.4842 14.2719 40.0575 14.2719H37.8175C37.6468 14.2719 37.5188 14.1653 37.4335 13.952C37.3482 13.7386 37.3055 13.504 37.3055 13.2479C37.3055 12.608 37.4762 12.288 37.8175 12.288C38.7988 12.288 39.8442 12.3093 40.9535 12.3519C42.0628 12.3946 43.0868 12.4159 44.0255 12.4159C45.9882 12.4159 47.4175 12.3946 48.3135 12.3519C49.2095 12.3093 50.0202 12.288 50.7455 12.288C51.0868 12.288 51.2575 12.6506 51.2575 13.3759C51.2575 13.9733 51.0868 14.2719 50.7455 14.2719H48.7615C47.9935 14.2719 47.4815 14.4213 47.2255 14.7199C47.0122 15.0186 46.9055 15.5733 46.9055 16.3839V31.04C46.9055 34.4533 47.6948 36.8853 49.2735 38.336C50.8948 39.7866 52.9002 40.512 55.2895 40.512C57.6788 40.512 59.5775 39.68 60.9855 38.016C62.4362 36.352 63.1615 33.7066 63.1615 30.08C63.1615 27.6906 63.1402 25.8346 63.0975 24.5119C63.0975 23.1466 63.0762 22.0373 63.0335 21.184C63.0335 20.288 63.0122 19.3706 62.9695 18.4319C62.9268 16.6399 62.7988 15.5093 62.5855 15.0399C62.3722 14.5279 62.1588 14.2719 61.9455 14.2719H59.3855C59.1295 14.2719 59.0015 13.9093 59.0015 13.184C59.0015 12.9706 59.0228 12.7786 59.0655 12.608C59.1082 12.4373 59.2148 12.3519 59.3855 12.3519C60.3242 12.3519 61.2202 12.3733 62.0735 12.4159C62.9695 12.4159 63.8868 12.4159 64.8255 12.4159C66.1482 12.4159 67.0868 12.4159 67.6415 12.4159C68.1962 12.3733 68.6228 12.3519 68.9215 12.3519C69.2202 12.3093 69.6042 12.288 70.0735 12.288C70.2442 12.288 70.3508 12.3733 70.3935 12.5439C70.4788 12.7146 70.5215 12.9066 70.5215 13.1199C70.5215 13.8026 70.3722 14.1439 70.0735 14.1439H68.7295C67.9188 14.1439 67.4068 14.2933 67.1935 14.5919C67.0228 14.8906 66.8948 15.4453 66.8095 16.2559ZM73.0855 28.864C73.0855 26.2186 73.5762 23.8506 74.5575 21.76C75.5815 19.6266 76.9682 17.8133 78.7175 16.32C80.4668 14.7839 82.4508 13.6106 84.6695 12.7999C86.9308 11.9893 89.2775 11.584 91.7095 11.584C93.1602 11.584 94.4828 11.776 95.6775 12.16C96.9148 12.5013 98.0242 12.9279 99.0055 13.4399V12.3519C99.0055 12.0533 99.2615 11.9039 99.7735 11.9039C99.9442 11.9039 100.115 11.9466 100.286 12.0319C100.499 12.0746 100.606 12.1813 100.606 12.3519C100.606 13.504 100.67 14.912 100.798 16.576C100.926 18.24 101.075 19.6266 101.246 20.736C101.288 20.9066 101.203 21.0346 100.99 21.1199C100.819 21.2053 100.627 21.2479 100.414 21.2479C100.243 21.2479 100.051 21.2053 99.8375 21.1199C99.6242 21.0346 99.4962 20.9066 99.4535 20.736L98.9415 17.344C97.6615 16.1066 96.3602 15.2319 95.0375 14.7199C93.7148 14.2079 92.2642 13.952 90.6855 13.952C88.6802 13.952 86.8242 14.5493 85.1175 15.7439C83.4108 16.9386 82.0455 18.5813 81.0215 20.6719C79.9975 22.7199 79.4855 25.088 79.4855 27.776C79.4855 30.464 80.0188 32.8533 81.0855 34.944C82.1948 37.0346 83.6455 38.6773 85.4375 39.872C87.2295 41.0666 89.2135 41.664 91.3895 41.664C92.9682 41.664 94.4188 41.4506 95.7415 41.024C97.1068 40.5546 98.4935 39.8506 99.9015 38.912L100.222 35.264C100.222 34.9226 100.499 34.752 101.054 34.752C101.224 34.752 101.438 34.7946 101.694 34.88C101.95 34.9226 102.056 35.0506 102.014 35.264C101.886 35.904 101.8 36.7146 101.758 37.696C101.715 38.6773 101.672 39.68 101.63 40.704C101.63 41.6853 101.63 42.56 101.63 43.328C101.63 43.456 101.502 43.5413 101.246 43.584C101.032 43.6693 100.84 43.712 100.67 43.712C100.158 43.712 99.9015 43.584 99.9015 43.328V42.24C96.9575 43.4346 94.0348 44.032 91.1335 44.032C87.7202 44.032 84.6482 43.4133 81.9175 42.176C79.1868 40.9386 77.0322 39.1893 75.4535 36.928C73.8748 34.6666 73.0855 31.9786 73.0855 28.864ZM125.143 0.255951C130.476 0.255951 135.084 1.17328 138.967 3.00795C142.892 4.79995 145.9 7.31728 147.991 10.5599C150.124 13.7599 151.191 17.4933 151.191 21.76C151.191 25.088 150.551 28.0746 149.271 30.72C148.033 33.3653 146.284 35.6266 144.023 37.504C141.761 39.3386 139.116 40.7466 136.087 41.728C133.1 42.7093 129.857 43.2 126.359 43.2H118.871C116.14 43.2 113.9 43.2213 112.151 43.264C110.401 43.3066 109.015 43.328 107.991 43.328C107.82 43.328 107.692 43.2213 107.607 43.008C107.521 42.7946 107.479 42.56 107.479 42.304C107.479 42.0053 107.521 41.7493 107.607 41.536C107.692 41.28 107.82 41.152 107.991 41.152H110.743C111.852 41.152 112.556 40.9386 112.855 40.512C113.196 40.0853 113.367 39.3173 113.367 38.208V7.74395C113.367 6.07995 113.281 4.86395 113.111 4.09595C112.983 3.32795 112.812 2.83728 112.599 2.62395C112.428 2.41062 112.236 2.30395 112.023 2.30395H107.991C107.607 2.30395 107.415 1.98395 107.415 1.34395C107.415 1.08795 107.457 0.83195 107.543 0.575951C107.671 0.277283 107.82 0.127949 107.991 0.127949C108.503 0.127949 109.249 0.149282 110.231 0.191948C111.212 0.191948 112.257 0.213282 113.367 0.255951C114.519 0.255951 115.543 0.255951 116.439 0.255951H125.143ZM126.551 40.576C130.049 40.5333 133.1 39.808 135.703 38.4C138.305 36.992 140.311 35.008 141.719 32.448C143.169 29.888 143.895 26.8586 143.895 23.36C143.895 19.52 143.169 16.128 141.719 13.184C140.268 10.1973 137.964 7.80795 134.807 6.01595C131.692 4.18128 127.553 3.11462 122.391 2.81595C121.623 2.77328 121.025 2.96528 120.599 3.39195C120.172 3.77595 119.959 4.45862 119.959 5.43995V35.008C119.959 36.6293 120.023 37.8453 120.151 38.656C120.321 39.4666 120.513 40 120.727 40.256C120.94 40.512 121.132 40.64 121.303 40.64L126.551 40.576ZM165.062 26.944C166.427 26.9013 167.729 26.8373 168.966 26.752C170.246 26.6666 171.313 26.5813 172.166 26.496C173.019 26.368 173.489 26.2826 173.574 26.24L174.022 23.552C174.107 23.3386 174.406 23.232 174.918 23.232C175.046 23.232 175.217 23.2746 175.43 23.36C175.643 23.4026 175.75 23.5093 175.75 23.68C175.665 24.3626 175.601 25.024 175.558 25.6639C175.515 26.2613 175.494 26.9226 175.494 27.648C175.494 28.288 175.515 28.992 175.558 29.76C175.601 30.4853 175.665 31.2106 175.75 31.936C175.75 32.064 175.622 32.1706 175.366 32.256C175.153 32.2986 174.939 32.32 174.726 32.32C174.555 32.32 174.385 32.2986 174.214 32.256C174.086 32.2133 174.022 32.1493 174.022 32.064L173.51 29.312C173.425 29.2266 172.955 29.1413 172.102 29.056C171.291 28.9706 170.267 28.8853 169.03 28.8C167.793 28.7146 166.47 28.6506 165.062 28.608V36.352C165.062 38.144 165.19 39.4026 165.446 40.128C165.702 40.8106 166.001 41.152 166.342 41.152H168.39C170.395 41.1093 172.294 40.9173 174.086 40.576C175.921 40.2346 177.265 39.7653 178.118 39.168L178.438 36.672C178.481 36.544 178.609 36.4586 178.822 36.416C179.078 36.3306 179.291 36.288 179.462 36.288C179.675 36.288 179.867 36.3093 180.038 36.352C180.209 36.3946 180.273 36.5013 180.23 36.672C180.059 37.7813 179.953 39.04 179.91 40.448C179.867 41.8133 179.846 43.072 179.846 44.224C179.846 44.352 179.739 44.4373 179.526 44.48C179.355 44.5226 179.206 44.544 179.078 44.544C178.907 44.544 178.694 44.5226 178.438 44.48C178.225 44.4373 178.118 44.352 178.118 44.224V43.2H166.726C164.123 43.2 162.118 43.2 160.71 43.2C159.302 43.2426 158.257 43.264 157.574 43.264C156.891 43.3066 156.315 43.328 155.846 43.328C155.675 43.328 155.547 43.2 155.462 42.944C155.419 42.688 155.398 42.4746 155.398 42.304C155.398 42.0906 155.419 41.8986 155.462 41.728C155.547 41.5146 155.654 41.408 155.782 41.408H158.662C159.131 41.408 159.409 41.3013 159.494 41.088C159.579 40.8746 159.622 40.3626 159.622 39.552V19.392C159.622 17.5999 159.494 16.2986 159.238 15.4879C159.025 14.6773 158.726 14.2719 158.342 14.2719H156.038C155.526 14.2719 155.27 13.952 155.27 13.312C155.27 12.6293 155.505 12.288 155.974 12.288C156.785 12.288 157.766 12.3093 158.918 12.3519C160.113 12.3946 161.307 12.4159 162.502 12.4159H175.75V11.392C175.75 11.264 175.835 11.1786 176.006 11.1359C176.177 11.0506 176.347 11.0079 176.518 11.0079C176.689 11.0079 176.881 11.0506 177.094 11.1359C177.35 11.1786 177.478 11.264 177.478 11.392C177.478 12.5439 177.499 13.8026 177.542 15.1679C177.627 16.5333 177.755 17.6853 177.926 18.624C177.969 18.752 177.905 18.8586 177.734 18.944C177.563 18.9866 177.393 19.0079 177.222 19.0079C177.051 19.0079 176.817 18.9866 176.518 18.944C176.262 18.8586 176.134 18.752 176.134 18.624C175.963 18.0266 175.75 17.3866 175.494 16.7039C175.281 16.0213 174.918 15.552 174.406 15.2959C173.595 14.9973 172.593 14.7626 171.398 14.5919C170.203 14.4213 168.603 14.3359 166.598 14.3359C166.001 14.3786 165.595 14.5706 165.382 14.9119C165.169 15.2106 165.062 15.7226 165.062 16.448V26.944ZM212.665 13.952C212.196 13.952 211.854 14.144 211.641 14.528C211.214 15.2533 210.638 16.4053 209.913 17.9839C209.23 19.5626 208.484 21.3759 207.673 23.424C206.905 25.472 206.116 27.584 205.305 29.76C204.494 31.8933 203.726 33.9626 203.001 35.968C202.276 37.9306 201.657 39.6373 201.145 41.088C200.676 42.5386 200.356 43.5413 200.185 44.096C200.014 44.48 199.588 44.672 198.905 44.672C198.265 44.672 197.86 44.4586 197.689 44.032C197.476 43.0933 197.049 41.7706 196.409 40.064C195.769 38.3573 195.022 36.4373 194.169 34.304C193.316 32.1706 192.42 29.9946 191.481 27.776C190.542 25.5573 189.625 23.4666 188.729 21.504C187.876 19.4986 187.129 17.8133 186.489 16.448C185.977 15.3813 185.508 14.7199 185.081 14.4639C184.654 14.1653 183.993 14.0159 183.097 14.0159C182.841 14.0159 182.713 13.7599 182.713 13.2479C182.713 13.0346 182.734 12.8213 182.777 12.608C182.862 12.3946 182.969 12.288 183.097 12.288C184.292 12.288 185.316 12.3093 186.169 12.3519C187.022 12.3946 188.025 12.4159 189.177 12.4159C189.988 12.4159 190.969 12.3946 192.121 12.3519C193.316 12.3093 194.638 12.288 196.089 12.288C196.26 12.288 196.366 12.3733 196.409 12.5439C196.452 12.7146 196.473 12.9066 196.473 13.1199C196.473 13.6746 196.345 13.952 196.089 13.952H193.017C192.548 13.952 192.313 14.144 192.313 14.528C192.313 14.6986 192.505 15.3599 192.889 16.5119C193.316 17.6213 193.849 19.0506 194.489 20.7999C195.129 22.5066 195.812 24.3626 196.537 26.368C197.262 28.3733 197.966 30.336 198.649 32.256C199.332 34.1333 199.908 35.776 200.377 37.184C201.358 33.856 202.382 30.6773 203.449 27.648C204.516 24.6186 205.412 22.016 206.137 19.84C206.905 17.6213 207.289 16.1066 207.289 15.2959C207.289 14.784 207.204 14.4426 207.033 14.2719C206.905 14.1013 206.734 14.0159 206.521 14.0159H203.897C203.556 14.0159 203.385 13.7599 203.385 13.2479C203.385 13.0346 203.406 12.8213 203.449 12.608C203.534 12.3946 203.641 12.288 203.769 12.288C204.836 12.288 205.668 12.3093 206.265 12.3519C206.905 12.3519 207.46 12.3733 207.929 12.4159C208.441 12.4159 209.017 12.4159 209.657 12.4159C210.425 12.4159 211.129 12.3946 211.769 12.3519C212.409 12.3093 213.262 12.288 214.329 12.288C214.5 12.288 214.606 12.3733 214.649 12.5439C214.734 12.7146 214.777 12.9066 214.777 13.1199C214.777 13.6746 214.628 13.952 214.329 13.952H212.665Z" fill="#111111"/>
<path d="M2.78401 63.2C2.33601 63.2 1.97601 63.2 1.70401 63.2C1.44801 63.216 1.20801 63.224 0.984013 63.224C0.776013 63.24 0.520013 63.248 0.216013 63.248C0.168013 63.248 0.128013 63.208 0.0960128 63.128C0.0640128 63.032 0.0480128 62.952 0.0480128 62.888C0.0480128 62.808 0.0560127 62.728 0.0720127 62.648C0.104013 62.568 0.136013 62.528 0.168013 62.528H1.34401C1.53601 62.528 1.63201 62.392 1.63201 62.12V54.248C1.63201 52.984 1.45601 52.352 1.10401 52.352H0.264013C0.0880128 52.352 1.27554e-05 52.232 1.27554e-05 51.992C1.27554e-05 51.896 0.0160128 51.808 0.0480128 51.728C0.0960127 51.648 0.152013 51.608 0.216013 51.608C0.216013 51.608 0.424013 51.616 0.840013 51.632C1.25601 51.632 1.79201 51.64 2.44801 51.656C3.12001 51.656 3.82401 51.656 4.56001 51.656C5.60001 51.656 6.46401 51.8 7.15201 52.088C7.84001 52.36 8.35201 52.72 8.68801 53.168C9.02401 53.616 9.19201 54.096 9.19201 54.608C9.19201 55.024 9.06401 55.408 8.80801 55.76C8.55201 56.112 8.21601 56.408 7.80001 56.648C7.38401 56.888 6.94401 57.056 6.48001 57.152V57.2C7.53601 57.392 8.40001 57.768 9.07201 58.328C9.76001 58.872 10.104 59.488 10.104 60.176C10.104 60.704 9.88801 61.2 9.45601 61.664C9.04001 62.128 8.44001 62.504 7.65601 62.792C6.88801 63.064 5.97601 63.2 4.92001 63.2H2.78401ZM4.15201 52.376C3.83201 52.376 3.67201 52.64 3.67201 53.168V56.744C3.80001 56.76 3.92801 56.776 4.05601 56.792C4.18401 56.792 4.32001 56.792 4.46401 56.792C5.28001 56.792 5.89601 56.584 6.31201 56.168C6.72801 55.752 6.93601 55.28 6.93601 54.752C6.93601 54.384 6.84801 54.016 6.67201 53.648C6.49601 53.28 6.20801 52.976 5.80801 52.736C5.40801 52.496 4.85601 52.376 4.15201 52.376ZM7.53601 60.176C7.53601 59.76 7.43201 59.368 7.22401 59C7.01601 58.632 6.63201 58.32 6.07201 58.064C5.52801 57.808 4.72801 57.656 3.67201 57.608V60.872C3.67201 61.4 3.72001 61.792 3.81601 62.048C3.91201 62.304 4.02401 62.432 4.15201 62.432H4.80001C5.69601 62.432 6.37601 62.216 6.84001 61.784C7.30401 61.352 7.53601 60.816 7.53601 60.176ZM17.443 51.56C17.507 51.416 17.667 51.344 17.923 51.344C18.163 51.344 18.315 51.424 18.379 51.584C18.459 51.936 18.611 52.424 18.835 53.048C19.075 53.672 19.355 54.376 19.675 55.16C19.995 55.928 20.323 56.72 20.659 57.536C21.011 58.336 21.347 59.104 21.667 59.84C22.003 60.56 22.291 61.176 22.531 61.688C22.723 62.088 22.899 62.344 23.059 62.456C23.219 62.552 23.467 62.6 23.803 62.6C23.899 62.6 23.947 62.696 23.947 62.888C23.947 62.968 23.939 63.048 23.923 63.128C23.907 63.208 23.875 63.248 23.827 63.248C23.331 63.248 22.915 63.24 22.579 63.224C22.243 63.208 21.891 63.2 21.523 63.2C21.219 63.2 20.851 63.208 20.419 63.224C19.987 63.24 19.491 63.248 18.931 63.248C18.867 63.248 18.827 63.216 18.811 63.152C18.795 63.072 18.787 63 18.787 62.936C18.787 62.728 18.835 62.624 18.931 62.624H20.083C20.259 62.624 20.347 62.552 20.347 62.408C20.347 62.36 20.283 62.16 20.155 61.808C20.027 61.456 19.859 61.008 19.651 60.464C19.459 59.92 19.243 59.336 19.003 58.712H15.667C15.331 59.544 15.051 60.264 14.827 60.872C14.603 61.48 14.491 61.896 14.491 62.12C14.491 62.312 14.523 62.44 14.587 62.504C14.651 62.568 14.715 62.6 14.779 62.6H15.763C15.891 62.6 15.955 62.696 15.955 62.888C15.955 62.968 15.939 63.048 15.907 63.128C15.891 63.208 15.859 63.248 15.811 63.248C15.411 63.248 15.091 63.24 14.851 63.224C14.627 63.224 14.419 63.216 14.227 63.2C14.051 63.2 13.843 63.2 13.603 63.2C13.315 63.2 13.027 63.208 12.739 63.224C12.467 63.24 12.123 63.248 11.707 63.248C11.643 63.248 11.595 63.216 11.563 63.152C11.547 63.072 11.539 63 11.539 62.936C11.539 62.728 11.595 62.624 11.707 62.624H12.475C12.651 62.624 12.779 62.552 12.859 62.408C13.019 62.152 13.243 61.704 13.531 61.064C13.835 60.408 14.171 59.648 14.539 58.784C14.907 57.92 15.275 57.032 15.643 56.12C16.027 55.208 16.379 54.352 16.699 53.552C17.019 52.736 17.267 52.072 17.443 51.56ZM18.691 57.896C18.467 57.24 18.243 56.592 18.019 55.952C17.811 55.312 17.619 54.744 17.443 54.248H17.371C17.163 54.84 16.939 55.456 16.699 56.096C16.459 56.736 16.227 57.336 16.003 57.896H18.691ZM28.7736 60.872C28.7736 61.4 28.8216 61.8 28.9176 62.072C29.0136 62.328 29.1256 62.456 29.2536 62.456H30.2616C30.3256 62.456 30.3736 62.504 30.4056 62.6C30.4376 62.696 30.4536 62.784 30.4536 62.864C30.4536 62.944 30.4376 63.024 30.4056 63.104C30.3896 63.168 30.3656 63.2 30.3336 63.2H27.8856C27.4376 63.2 27.0776 63.2 26.8056 63.2C26.5496 63.216 26.3096 63.224 26.0856 63.224C25.8776 63.24 25.6216 63.248 25.3176 63.248C25.2696 63.248 25.2296 63.208 25.1976 63.128C25.1656 63.032 25.1496 62.952 25.1496 62.888C25.1496 62.808 25.1576 62.728 25.1736 62.648C25.2056 62.568 25.2376 62.528 25.2696 62.528H26.4456C26.6376 62.528 26.7336 62.392 26.7336 62.12V54.248C26.7336 52.984 26.5576 52.352 26.2056 52.352H25.3656C25.1896 52.352 25.1016 52.232 25.1016 51.992C25.1016 51.896 25.1176 51.808 25.1496 51.728C25.1976 51.648 25.2536 51.608 25.3176 51.608C25.3176 51.608 25.5256 51.616 25.9416 51.632C26.3576 51.632 26.8936 51.64 27.5496 51.656C28.2216 51.656 28.9256 51.656 29.6616 51.656C31.2296 51.656 32.4056 51.984 33.1896 52.64C33.9896 53.296 34.3896 54.088 34.3896 55.016C34.3896 55.608 34.2296 56.128 33.9096 56.576C33.6056 57.024 33.1976 57.384 32.6856 57.656C32.1736 57.912 31.6216 58.064 31.0296 58.112C31.3496 58.32 31.6376 58.592 31.8936 58.928C32.1656 59.248 32.4696 59.616 32.8056 60.032C33.1576 60.432 33.5816 60.848 34.0776 61.28C34.5896 61.712 35.2456 62.136 36.0456 62.552C35.9176 62.808 35.7256 63.032 35.4696 63.224C35.2136 63.416 34.9016 63.512 34.5336 63.512C33.9896 63.512 33.5176 63.36 33.1176 63.056C32.7336 62.752 32.3976 62.368 32.1096 61.904C31.8216 61.44 31.5576 60.96 31.3176 60.464C31.0936 59.952 30.8616 59.488 30.6216 59.072C30.3976 58.656 30.1496 58.352 29.8776 58.16L28.7736 58.088V60.872ZM29.2536 52.376C28.9336 52.376 28.7736 52.64 28.7736 53.168V57.152C28.9976 57.2 29.2216 57.224 29.4456 57.224C29.8936 57.224 30.3176 57.144 30.7176 56.984C31.1336 56.808 31.4696 56.552 31.7256 56.216C31.9816 55.864 32.1096 55.44 32.1096 54.944C32.1096 54.576 32.0136 54.192 31.8216 53.792C31.6456 53.392 31.3496 53.056 30.9336 52.784C30.5176 52.512 29.9576 52.376 29.2536 52.376ZM39.8856 63.2C39.4376 63.2 39.0776 63.2 38.8056 63.2C38.5496 63.216 38.3096 63.224 38.0856 63.224C37.8776 63.24 37.6216 63.248 37.3176 63.248C37.2696 63.248 37.2296 63.208 37.1976 63.128C37.1656 63.032 37.1496 62.952 37.1496 62.888C37.1496 62.808 37.1576 62.728 37.1736 62.648C37.2056 62.568 37.2376 62.528 37.2696 62.528H38.4456C38.6376 62.528 38.7336 62.392 38.7336 62.12V54.248C38.7336 52.984 38.5576 52.352 38.2056 52.352H37.3656C37.1896 52.352 37.1016 52.232 37.1016 51.992C37.1016 51.896 37.1176 51.808 37.1496 51.728C37.1976 51.648 37.2536 51.608 37.3176 51.608C37.3176 51.608 37.5256 51.616 37.9416 51.632C38.3576 51.632 38.8936 51.64 39.5496 51.656C40.2216 51.656 40.9256 51.656 41.6616 51.656C42.7016 51.656 43.5656 51.8 44.2536 52.088C44.9416 52.36 45.4536 52.72 45.7896 53.168C46.1256 53.616 46.2936 54.096 46.2936 54.608C46.2936 55.024 46.1656 55.408 45.9096 55.76C45.6536 56.112 45.3176 56.408 44.9016 56.648C44.4856 56.888 44.0456 57.056 43.5816 57.152V57.2C44.6376 57.392 45.5016 57.768 46.1736 58.328C46.8616 58.872 47.2056 59.488 47.2056 60.176C47.2056 60.704 46.9896 61.2 46.5576 61.664C46.1416 62.128 45.5416 62.504 44.7576 62.792C43.9896 63.064 43.0776 63.2 42.0216 63.2H39.8856ZM41.2536 52.376C40.9336 52.376 40.7736 52.64 40.7736 53.168V56.744C40.9016 56.76 41.0296 56.776 41.1576 56.792C41.2856 56.792 41.4216 56.792 41.5656 56.792C42.3816 56.792 42.9976 56.584 43.4136 56.168C43.8296 55.752 44.0376 55.28 44.0376 54.752C44.0376 54.384 43.9496 54.016 43.7736 53.648C43.5976 53.28 43.3096 52.976 42.9096 52.736C42.5096 52.496 41.9576 52.376 41.2536 52.376ZM44.6376 60.176C44.6376 59.76 44.5336 59.368 44.3256 59C44.1176 58.632 43.7336 58.32 43.1736 58.064C42.6296 57.808 41.8296 57.656 40.7736 57.608V60.872C40.7736 61.4 40.8216 61.792 40.9176 62.048C41.0136 62.304 41.1256 62.432 41.2536 62.432H41.9016C42.7976 62.432 43.4776 62.216 43.9416 61.784C44.4056 61.352 44.6376 60.816 44.6376 60.176ZM52.9845 57.104C53.4965 57.088 53.9845 57.064 54.4485 57.032C54.9285 57 55.3285 56.968 55.6485 56.936C55.9685 56.888 56.1445 56.856 56.1765 56.84L56.3445 55.832C56.3765 55.752 56.4885 55.712 56.6805 55.712C56.7285 55.712 56.7925 55.728 56.8725 55.76C56.9525 55.776 56.9925 55.816 56.9925 55.88C56.9605 56.136 56.9365 56.384 56.9205 56.624C56.9045 56.848 56.8965 57.096 56.8965 57.368C56.8965 57.608 56.9045 57.872 56.9205 58.16C56.9365 58.432 56.9605 58.704 56.9925 58.976C56.9925 59.024 56.9445 59.064 56.8485 59.096C56.7685 59.112 56.6885 59.12 56.6085 59.12C56.5445 59.12 56.4805 59.112 56.4165 59.096C56.3685 59.08 56.3445 59.056 56.3445 59.024L56.1525 57.992C56.1205 57.96 55.9445 57.928 55.6245 57.896C55.3205 57.864 54.9365 57.832 54.4725 57.8C54.0085 57.768 53.5125 57.744 52.9845 57.728V60.632C52.9845 61.304 53.0325 61.776 53.1285 62.048C53.2245 62.304 53.3365 62.432 53.4645 62.432H54.2325C54.9845 62.416 55.6965 62.344 56.3685 62.216C57.0565 62.088 57.5605 61.912 57.8805 61.688L58.0005 60.752C58.0165 60.704 58.0645 60.672 58.1445 60.656C58.2405 60.624 58.3205 60.608 58.3845 60.608C58.4645 60.608 58.5365 60.616 58.6005 60.632C58.6645 60.648 58.6885 60.688 58.6725 60.752C58.6085 61.168 58.5685 61.64 58.5525 62.168C58.5365 62.68 58.5285 63.152 58.5285 63.584C58.5285 63.632 58.4885 63.664 58.4085 63.68C58.3445 63.696 58.2885 63.704 58.2405 63.704C58.1765 63.704 58.0965 63.696 58.0005 63.68C57.9205 63.664 57.8805 63.632 57.8805 63.584V63.2H53.6085C52.6325 63.2 51.8805 63.2 51.3525 63.2C50.8245 63.216 50.4325 63.224 50.1765 63.224C49.9205 63.24 49.7045 63.248 49.5285 63.248C49.4645 63.248 49.4165 63.2 49.3845 63.104C49.3685 63.008 49.3605 62.928 49.3605 62.864C49.3605 62.784 49.3685 62.712 49.3845 62.648C49.4165 62.568 49.4565 62.528 49.5045 62.528H50.5845C50.7605 62.528 50.8645 62.488 50.8965 62.408C50.9285 62.328 50.9445 62.136 50.9445 61.832V54.272C50.9445 53.6 50.8965 53.112 50.8005 52.808C50.7205 52.504 50.6085 52.352 50.4645 52.352H49.6005C49.4085 52.352 49.3125 52.232 49.3125 51.992C49.3125 51.736 49.4005 51.608 49.5765 51.608C49.8805 51.608 50.2485 51.616 50.6805 51.632C51.1285 51.648 51.5765 51.656 52.0245 51.656H56.9925V51.272C56.9925 51.224 57.0245 51.192 57.0885 51.176C57.1525 51.144 57.2165 51.128 57.2805 51.128C57.3445 51.128 57.4165 51.144 57.4965 51.176C57.5925 51.192 57.6405 51.224 57.6405 51.272C57.6405 51.704 57.6485 52.176 57.6645 52.688C57.6965 53.2 57.7445 53.632 57.8085 53.984C57.8245 54.032 57.8005 54.072 57.7365 54.104C57.6725 54.12 57.6085 54.128 57.5445 54.128C57.4805 54.128 57.3925 54.12 57.2805 54.104C57.1845 54.072 57.1365 54.032 57.1365 53.984C57.0725 53.76 56.9925 53.52 56.8965 53.264C56.8165 53.008 56.6805 52.832 56.4885 52.736C56.1845 52.624 55.8085 52.536 55.3605 52.472C54.9125 52.408 54.3125 52.376 53.5605 52.376C53.3365 52.392 53.1845 52.464 53.1045 52.592C53.0245 52.704 52.9845 52.896 52.9845 53.168V57.104ZM64.1876 60.872C64.1876 61.4 64.2356 61.8 64.3316 62.072C64.4276 62.328 64.5396 62.456 64.6676 62.456H65.6756C65.7396 62.456 65.7876 62.504 65.8196 62.6C65.8516 62.696 65.8676 62.784 65.8676 62.864C65.8676 62.944 65.8516 63.024 65.8196 63.104C65.8036 63.168 65.7796 63.2 65.7476 63.2H63.2996C62.8516 63.2 62.4916 63.2 62.2196 63.2C61.9636 63.216 61.7236 63.224 61.4996 63.224C61.2916 63.24 61.0356 63.248 60.7316 63.248C60.6836 63.248 60.6436 63.208 60.6116 63.128C60.5796 63.032 60.5636 62.952 60.5636 62.888C60.5636 62.808 60.5716 62.728 60.5876 62.648C60.6196 62.568 60.6516 62.528 60.6836 62.528H61.8596C62.0516 62.528 62.1476 62.392 62.1476 62.12V54.248C62.1476 52.984 61.9716 52.352 61.6196 52.352H60.7796C60.6036 52.352 60.5156 52.232 60.5156 51.992C60.5156 51.896 60.5316 51.808 60.5636 51.728C60.6116 51.648 60.6676 51.608 60.7316 51.608C60.7316 51.608 60.9396 51.616 61.3556 51.632C61.7716 51.632 62.3076 51.64 62.9636 51.656C63.6356 51.656 64.3396 51.656 65.0756 51.656C66.6436 51.656 67.8196 51.984 68.6036 52.64C69.4036 53.296 69.8036 54.088 69.8036 55.016C69.8036 55.608 69.6436 56.128 69.3236 56.576C69.0196 57.024 68.6116 57.384 68.0996 57.656C67.5876 57.912 67.0356 58.064 66.4436 58.112C66.7636 58.32 67.0516 58.592 67.3076 58.928C67.5796 59.248 67.8836 59.616 68.2196 60.032C68.5716 60.432 68.9956 60.848 69.4916 61.28C70.0036 61.712 70.6596 62.136 71.4596 62.552C71.3316 62.808 71.1396 63.032 70.8836 63.224C70.6276 63.416 70.3156 63.512 69.9476 63.512C69.4036 63.512 68.9316 63.36 68.5316 63.056C68.1476 62.752 67.8116 62.368 67.5236 61.904C67.2356 61.44 66.9716 60.96 66.7316 60.464C66.5076 59.952 66.2756 59.488 66.0356 59.072C65.8116 58.656 65.5636 58.352 65.2916 58.16L64.1876 58.088V60.872ZM64.6676 52.376C64.3476 52.376 64.1876 52.64 64.1876 53.168V57.152C64.4116 57.2 64.6356 57.224 64.8596 57.224C65.3076 57.224 65.7316 57.144 66.1316 56.984C66.5476 56.808 66.8836 56.552 67.1396 56.216C67.3956 55.864 67.5236 55.44 67.5236 54.944C67.5236 54.576 67.4276 54.192 67.2356 53.792C67.0596 53.392 66.7636 53.056 66.3476 52.784C65.9316 52.512 65.3716 52.376 64.6676 52.376Z" fill="#C8A24A"/>
</svg>
