<svg width="108" height="32" viewBox="0 0 108 32" fill="none" xmlns="http://www.w3.org/2000/svg">
<path d="M7.45403 20.32H9.31003C10.782 20.32 12.1687 20.2026 13.47 19.968C14.7714 19.7333 15.7314 19.4026 16.35 18.976L16.574 17.216C16.5954 17.1306 16.6594 17.0666 16.766 17.024C16.894 16.9813 17.0327 16.96 17.182 16.96C17.502 16.96 17.6514 17.0453 17.63 17.216C17.5234 18.0053 17.4487 18.848 17.406 19.744C17.3634 20.64 17.342 21.4933 17.342 22.304C17.342 22.4533 17.182 22.528 16.862 22.528C16.734 22.528 16.6167 22.5066 16.51 22.464C16.4034 22.4426 16.35 22.3893 16.35 22.304V21.6H5.95003C5.05403 21.6 4.33936 21.6 3.80603 21.6C3.2727 21.6213 2.83536 21.632 2.49403 21.632C2.1527 21.6533 1.81136 21.664 1.47003 21.664C1.3847 21.664 1.3207 21.6106 1.27803 21.504C1.23536 21.3973 1.21403 21.28 1.21403 21.152C1.21403 21.0026 1.23536 20.8746 1.27803 20.768C1.3207 20.64 1.3847 20.576 1.47003 20.576H2.84603C3.4007 20.576 3.7527 20.4693 3.90203 20.256C4.0727 20.0426 4.15803 19.6586 4.15803 19.104V3.93597C4.15803 3.10397 4.11536 2.49597 4.03003 2.11197C3.96603 1.70664 3.8807 1.43998 3.77403 1.31198C3.6887 1.18397 3.5927 1.11997 3.48603 1.11997H1.63003C1.45936 1.11997 1.37403 0.917308 1.37403 0.511974C1.37403 0.405308 1.3847 0.309308 1.40603 0.223974C1.4487 0.117308 1.52336 0.0639744 1.63003 0.0639744C2.3127 0.0639744 2.99536 0.0746409 3.67803 0.095974C4.3607 0.095974 5.02203 0.095974 5.66203 0.095974C6.57936 0.095974 7.29403 0.095974 7.80603 0.095974C8.33936 0.0746409 8.7767 0.0533079 9.11803 0.0319748C9.45936 0.0106417 9.8007 -2.47955e-05 10.142 -2.47955e-05C10.2487 -2.47955e-05 10.3127 0.0533085 10.334 0.159975C10.3767 0.266642 10.398 0.383975 10.398 0.511974C10.398 0.661308 10.3767 0.799975 10.334 0.927975C10.2914 1.03464 10.2274 1.08797 10.142 1.08797H8.76603C8.2327 1.08797 7.8807 1.19464 7.71003 1.40797C7.53936 1.62131 7.45403 2.00531 7.45403 2.55997V20.32ZM33.4428 8.12797C33.4214 8.46931 33.3681 9.33331 33.2828 10.72C33.2188 12.1066 33.1868 13.8133 33.1868 15.84C33.1868 17.2053 32.8881 18.3466 32.2908 19.264C31.6934 20.16 30.9254 20.8426 29.9868 21.312C29.0481 21.7813 28.0561 22.016 27.0108 22.016C26.0081 22.016 25.0268 21.8026 24.0668 21.376C23.1068 20.9493 22.3174 20.2986 21.6988 19.424C21.0801 18.5493 20.7708 17.4613 20.7708 16.16V9.50397C20.7708 8.60798 20.7068 7.98931 20.5788 7.64797C20.4508 7.30664 20.2801 7.13597 20.0668 7.13597H18.9468C18.8614 7.13597 18.7974 7.08264 18.7548 6.97598C18.7121 6.86931 18.6908 6.75198 18.6908 6.62397C18.6908 6.30398 18.7761 6.14398 18.9468 6.14398C19.4374 6.14398 19.9601 6.15464 20.5148 6.17597C21.0694 6.19731 21.5814 6.20797 22.0508 6.20797C23.0321 6.20797 23.7468 6.19731 24.1948 6.17597C24.6428 6.15464 25.0481 6.14398 25.4108 6.14398C25.5814 6.14398 25.6668 6.32531 25.6668 6.68797C25.6668 6.98664 25.5814 7.13597 25.4108 7.13597H24.4188C24.0348 7.13597 23.7788 7.21064 23.6508 7.35997C23.5441 7.50931 23.4908 7.78664 23.4908 8.19197V15.52C23.4908 17.2266 23.8854 18.4426 24.6748 19.168C25.4854 19.8933 26.4881 20.256 27.6828 20.256C28.8774 20.256 29.8268 19.84 30.5308 19.008C31.2561 18.176 31.6188 16.8533 31.6188 15.04C31.6188 13.8453 31.6081 12.9173 31.5868 12.256C31.5868 11.5733 31.5761 11.0186 31.5548 10.592C31.5548 10.144 31.5441 9.68531 31.5228 9.21597C31.5014 8.31997 31.4374 7.75464 31.3308 7.51997C31.2241 7.26397 31.1174 7.13597 31.0108 7.13597H29.7308C29.6028 7.13597 29.5388 6.95464 29.5388 6.59198C29.5388 6.48531 29.5494 6.38931 29.5708 6.30398C29.5921 6.21864 29.6454 6.17597 29.7308 6.17597C30.2001 6.17597 30.6481 6.18664 31.0748 6.20797C31.5228 6.20797 31.9814 6.20797 32.4508 6.20797C33.1121 6.20797 33.5814 6.20797 33.8588 6.20797C34.1361 6.18664 34.3494 6.17597 34.4988 6.17597C34.6481 6.15464 34.8401 6.14398 35.0748 6.14398C35.1601 6.14398 35.2134 6.18664 35.2348 6.27197C35.2774 6.35731 35.2988 6.45331 35.2988 6.55997C35.2988 6.90131 35.2241 7.07197 35.0748 7.07197H34.4028C33.9974 7.07197 33.7414 7.14664 33.6348 7.29597C33.5494 7.44531 33.4854 7.72264 33.4428 8.12797ZM36.5808 14.432C36.5808 13.1093 36.8261 11.9253 37.3168 10.88C37.8288 9.81331 38.5221 8.90664 39.3968 8.15998C40.2714 7.39197 41.2634 6.80531 42.3728 6.39997C43.5034 5.99464 44.6768 5.79198 45.8928 5.79198C46.6181 5.79198 47.2794 5.88798 47.8768 6.07998C48.4954 6.25064 49.0501 6.46397 49.5408 6.71997V6.17597C49.5408 6.02664 49.6688 5.95197 49.9248 5.95197C50.0101 5.95197 50.0954 5.97331 50.1808 6.01597C50.2874 6.03731 50.3408 6.09064 50.3408 6.17597C50.3408 6.75198 50.3728 7.45598 50.4368 8.28798C50.5008 9.11998 50.5754 9.81331 50.6608 10.368C50.6821 10.4533 50.6394 10.5173 50.5328 10.56C50.4474 10.6026 50.3514 10.624 50.2448 10.624C50.1594 10.624 50.0634 10.6026 49.9568 10.56C49.8501 10.5173 49.7861 10.4533 49.7648 10.368L49.5088 8.67198C48.8688 8.05331 48.2181 7.61597 47.5568 7.35997C46.8954 7.10397 46.1701 6.97598 45.3808 6.97598C44.3781 6.97598 43.4501 7.27464 42.5968 7.87197C41.7434 8.46931 41.0608 9.29064 40.5488 10.336C40.0368 11.36 39.7808 12.544 39.7808 13.888C39.7808 15.232 40.0474 16.4266 40.5808 17.472C41.1354 18.5173 41.8608 19.3386 42.7568 19.936C43.6528 20.5333 44.6448 20.832 45.7328 20.832C46.5221 20.832 47.2474 20.7253 47.9088 20.512C48.5914 20.2773 49.2848 19.9253 49.9888 19.456L50.1488 17.632C50.1488 17.4613 50.2874 17.376 50.5648 17.376C50.6501 17.376 50.7568 17.3973 50.8848 17.44C51.0128 17.4613 51.0661 17.5253 51.0448 17.632C50.9808 17.952 50.9381 18.3573 50.9168 18.848C50.8954 19.3386 50.8741 19.84 50.8528 20.352C50.8528 20.8426 50.8528 21.28 50.8528 21.664C50.8528 21.728 50.7888 21.7706 50.6608 21.792C50.5541 21.8346 50.4581 21.856 50.3728 21.856C50.1168 21.856 49.9888 21.792 49.9888 21.664V21.12C48.5168 21.7173 47.0554 22.016 45.6048 22.016C43.8981 22.016 42.3621 21.7066 40.9968 21.088C39.6314 20.4693 38.5541 19.5946 37.7648 18.464C36.9754 17.3333 36.5808 15.9893 36.5808 14.432ZM62.6093 0.127975C65.2759 0.127975 67.5799 0.586642 69.5213 1.50397C71.4839 2.39997 72.9879 3.65864 74.0333 5.27997C75.0999 6.87997 75.6333 8.74664 75.6333 10.88C75.6333 12.544 75.3133 14.0373 74.6733 15.36C74.0546 16.6826 73.1799 17.8133 72.0493 18.752C70.9186 19.6693 69.5959 20.3733 68.0813 20.864C66.5879 21.3546 64.9666 21.6 63.2173 21.6H59.4733C58.1079 21.6 56.9879 21.6106 56.1133 21.632C55.2386 21.6533 54.5453 21.664 54.0333 21.664C53.9479 21.664 53.8839 21.6106 53.8413 21.504C53.7986 21.3973 53.7773 21.28 53.7773 21.152C53.7773 21.0026 53.7986 20.8746 53.8413 20.768C53.8839 20.64 53.9479 20.576 54.0333 20.576H55.4093C55.9639 20.576 56.3159 20.4693 56.4653 20.256C56.6359 20.0426 56.7213 19.6586 56.7213 19.104V3.87197C56.7213 3.03997 56.6786 2.43197 56.5933 2.04798C56.5293 1.66398 56.4439 1.41864 56.3373 1.31198C56.2519 1.20531 56.1559 1.15197 56.0493 1.15197H54.0333C53.8413 1.15197 53.7453 0.991974 53.7453 0.671974C53.7453 0.543975 53.7666 0.415975 53.8093 0.287975C53.8733 0.138641 53.9479 0.0639744 54.0333 0.0639744C54.2893 0.0639744 54.6626 0.0746409 55.1533 0.095974C55.6439 0.095974 56.1666 0.106641 56.7213 0.127975C57.2973 0.127975 57.8093 0.127975 58.2573 0.127975H62.6093ZM63.3133 20.288C65.0626 20.2666 66.5879 19.904 67.8893 19.2C69.1906 18.496 70.1933 17.504 70.8973 16.224C71.6226 14.944 71.9853 13.4293 71.9853 11.68C71.9853 9.75998 71.6226 8.06398 70.8973 6.59198C70.1719 5.09864 69.0199 3.90397 67.4413 3.00797C65.8839 2.09064 63.8146 1.55731 61.2333 1.40797C60.8493 1.38664 60.5506 1.48264 60.3373 1.69597C60.1239 1.88797 60.0173 2.22931 60.0173 2.71997V17.504C60.0173 18.3146 60.0493 18.9226 60.1133 19.328C60.1986 19.7333 60.2946 20 60.4013 20.128C60.5079 20.256 60.6039 20.32 60.6893 20.32L63.3133 20.288ZM82.569 13.472C83.2517 13.4506 83.9024 13.4186 84.521 13.376C85.161 13.3333 85.6944 13.2906 86.121 13.248C86.5477 13.184 86.7824 13.1413 86.825 13.12L87.049 11.776C87.0917 11.6693 87.241 11.616 87.497 11.616C87.561 11.616 87.6464 11.6373 87.753 11.68C87.8597 11.7013 87.913 11.7546 87.913 11.84C87.8704 12.1813 87.8384 12.512 87.817 12.832C87.7957 13.1306 87.785 13.4613 87.785 13.824C87.785 14.144 87.7957 14.496 87.817 14.88C87.8384 15.2426 87.8704 15.6053 87.913 15.968C87.913 16.032 87.849 16.0853 87.721 16.128C87.6144 16.1493 87.5077 16.16 87.401 16.16C87.3157 16.16 87.2304 16.1493 87.145 16.128C87.081 16.1066 87.049 16.0746 87.049 16.032L86.793 14.656C86.7504 14.6133 86.5157 14.5706 86.089 14.528C85.6837 14.4853 85.1717 14.4426 84.553 14.4C83.9344 14.3573 83.273 14.3253 82.569 14.304V18.176C82.569 19.072 82.633 19.7013 82.761 20.064C82.889 20.4053 83.0384 20.576 83.209 20.576H84.233C85.2357 20.5546 86.185 20.4586 87.081 20.288C87.9984 20.1173 88.6704 19.8826 89.097 19.584L89.257 18.336C89.2784 18.272 89.3424 18.2293 89.449 18.208C89.577 18.1653 89.6837 18.144 89.769 18.144C89.8757 18.144 89.9717 18.1546 90.057 18.176C90.1424 18.1973 90.1744 18.2506 90.153 18.336C90.0677 18.8906 90.0144 19.52 89.993 20.224C89.9717 20.9066 89.961 21.536 89.961 22.112C89.961 22.176 89.9077 22.2186 89.801 22.24C89.7157 22.2613 89.641 22.272 89.577 22.272C89.4917 22.272 89.385 22.2613 89.257 22.24C89.1504 22.2186 89.097 22.176 89.097 22.112V21.6H83.401C82.0997 21.6 81.097 21.6 80.393 21.6C79.689 21.6213 79.1664 21.632 78.825 21.632C78.4837 21.6533 78.1957 21.664 77.961 21.664C77.8757 21.664 77.8117 21.6 77.769 21.472C77.7477 21.344 77.737 21.2373 77.737 21.152C77.737 21.0453 77.7477 20.9493 77.769 20.864C77.8117 20.7573 77.865 20.704 77.929 20.704H79.369C79.6037 20.704 79.7424 20.6506 79.785 20.544C79.8277 20.4373 79.849 20.1813 79.849 19.776V9.69598C79.849 8.79997 79.785 8.14931 79.657 7.74397C79.5504 7.33864 79.401 7.13597 79.209 7.13597H78.057C77.801 7.13597 77.673 6.97598 77.673 6.65598C77.673 6.31464 77.7904 6.14398 78.025 6.14398C78.4304 6.14398 78.921 6.15464 79.497 6.17597C80.0944 6.19731 80.6917 6.20797 81.289 6.20797H87.913V5.69598C87.913 5.63198 87.9557 5.58931 88.041 5.56797C88.1264 5.52531 88.2117 5.50397 88.297 5.50397C88.3824 5.50397 88.4784 5.52531 88.585 5.56797C88.713 5.58931 88.777 5.63198 88.777 5.69598C88.777 6.27197 88.7877 6.90131 88.809 7.58397C88.8517 8.26664 88.9157 8.84264 89.001 9.31198C89.0224 9.37598 88.9904 9.42931 88.905 9.47198C88.8197 9.49331 88.7344 9.50397 88.649 9.50397C88.5637 9.50397 88.4464 9.49331 88.297 9.47198C88.169 9.42931 88.105 9.37598 88.105 9.31198C88.0197 9.01331 87.913 8.69331 87.785 8.35197C87.6784 8.01064 87.497 7.77598 87.241 7.64797C86.8357 7.49864 86.3344 7.38131 85.737 7.29597C85.1397 7.21064 84.3397 7.16797 83.337 7.16797C83.0384 7.18931 82.8357 7.28531 82.729 7.45597C82.6224 7.60531 82.569 7.86131 82.569 8.22398V13.472ZM106.371 6.97598C106.136 6.97598 105.965 7.07198 105.859 7.26398C105.645 7.62664 105.357 8.20264 104.995 8.99197C104.653 9.78131 104.28 10.688 103.875 11.712C103.491 12.736 103.096 13.792 102.691 14.88C102.285 15.9466 101.901 16.9813 101.539 17.984C101.176 18.9653 100.867 19.8186 100.611 20.544C100.376 21.2693 100.216 21.7706 100.131 22.048C100.045 22.24 99.8319 22.336 99.4905 22.336C99.1705 22.336 98.9679 22.2293 98.8825 22.016C98.7759 21.5466 98.5625 20.8853 98.2425 20.032C97.9225 19.1786 97.5492 18.2186 97.1225 17.152C96.6959 16.0853 96.2479 14.9973 95.7785 13.888C95.3092 12.7786 94.8505 11.7333 94.4025 10.752C93.9759 9.74931 93.6025 8.90664 93.2825 8.22398C93.0265 7.69064 92.7919 7.35997 92.5785 7.23197C92.3652 7.08264 92.0345 7.00797 91.5865 7.00797C91.4585 7.00797 91.3945 6.87997 91.3945 6.62397C91.3945 6.51731 91.4052 6.41064 91.4265 6.30398C91.4692 6.19731 91.5225 6.14398 91.5865 6.14398C92.1839 6.14398 92.6959 6.15464 93.1225 6.17597C93.5492 6.19731 94.0505 6.20797 94.6265 6.20797C95.0319 6.20797 95.5225 6.19731 96.0985 6.17597C96.6959 6.15464 97.3572 6.14398 98.0825 6.14398C98.1679 6.14398 98.2212 6.18664 98.2425 6.27197C98.2639 6.35731 98.2745 6.45331 98.2745 6.55997C98.2745 6.83731 98.2105 6.97598 98.0825 6.97598H96.5465C96.3119 6.97598 96.1945 7.07198 96.1945 7.26398C96.1945 7.34931 96.2905 7.67997 96.4825 8.25597C96.6959 8.81064 96.9625 9.52531 97.2825 10.4C97.6025 11.2533 97.9439 12.1813 98.3065 13.184C98.6692 14.1866 99.0212 15.168 99.3625 16.128C99.7039 17.0666 99.9919 17.888 100.227 18.592C100.717 16.928 101.229 15.3386 101.763 13.824C102.296 12.3093 102.744 11.008 103.107 9.91998C103.491 8.81064 103.683 8.05331 103.683 7.64797C103.683 7.39198 103.64 7.22131 103.555 7.13597C103.491 7.05064 103.405 7.00797 103.299 7.00797H101.987C101.816 7.00797 101.731 6.87997 101.731 6.62397C101.731 6.51731 101.741 6.41064 101.763 6.30398C101.805 6.19731 101.859 6.14398 101.923 6.14398C102.456 6.14398 102.872 6.15464 103.171 6.17597C103.491 6.17597 103.768 6.18664 104.003 6.20797C104.259 6.20797 104.547 6.20797 104.867 6.20797C105.251 6.20797 105.603 6.19731 105.923 6.17597C106.243 6.15464 106.669 6.14398 107.203 6.14398C107.288 6.14398 107.341 6.18664 107.363 6.27197C107.405 6.35731 107.427 6.45331 107.427 6.55997C107.427 6.83731 107.352 6.97598 107.203 6.97598H106.371Z" fill="#FFFBFB"/>
<path d="M1.27603 31.6C1.0707 31.6 0.905698 31.6 0.781031 31.6C0.663698 31.6073 0.553698 31.611 0.451031 31.611C0.355698 31.6183 0.238365 31.622 0.0990313 31.622C0.0770313 31.622 0.058698 31.6036 0.0440313 31.567C0.0293646 31.523 0.0220313 31.4863 0.0220313 31.457C0.0220313 31.4203 0.0256979 31.3836 0.0330313 31.347C0.0476979 31.3103 0.0623646 31.292 0.0770313 31.292H0.616031C0.704031 31.292 0.748031 31.2296 0.748031 31.105V27.497C0.748031 26.9176 0.667365 26.628 0.506031 26.628H0.121031C0.0403646 26.628 3.12775e-05 26.573 3.12775e-05 26.463C3.12775e-05 26.419 0.00736461 26.3786 0.0220313 26.342C0.0440313 26.3053 0.0696979 26.287 0.0990313 26.287C0.0990313 26.287 0.194365 26.2906 0.385031 26.298C0.575698 26.298 0.821365 26.3016 1.12203 26.309C1.43003 26.309 1.7527 26.309 2.09003 26.309C2.5667 26.309 2.9627 26.375 3.27803 26.507C3.59336 26.6316 3.82803 26.7966 3.98203 27.002C4.13603 27.2073 4.21303 27.4273 4.21303 27.662C4.21303 27.8526 4.15436 28.0286 4.03703 28.19C3.9197 28.3513 3.7657 28.487 3.57503 28.597C3.38436 28.707 3.1827 28.784 2.97003 28.828V28.85C3.45403 28.938 3.85003 29.1103 4.15803 29.367C4.47336 29.6163 4.63103 29.8986 4.63103 30.214C4.63103 30.456 4.53203 30.6833 4.33403 30.896C4.14336 31.1086 3.86836 31.281 3.50903 31.413C3.15703 31.5376 2.73903 31.6 2.25503 31.6H1.27603ZM1.90303 26.639C1.75636 26.639 1.68303 26.76 1.68303 27.002V28.641C1.7417 28.6483 1.80036 28.6556 1.85903 28.663C1.9177 28.663 1.98003 28.663 2.04603 28.663C2.42003 28.663 2.70236 28.5676 2.89303 28.377C3.0837 28.1863 3.17903 27.97 3.17903 27.728C3.17903 27.5593 3.1387 27.3906 3.05803 27.222C2.97736 27.0533 2.84536 26.914 2.66203 26.804C2.4787 26.694 2.2257 26.639 1.90303 26.639ZM3.45403 30.214C3.45403 30.0233 3.40636 29.8436 3.31103 29.675C3.2157 29.5063 3.0397 29.3633 2.78303 29.246C2.5337 29.1286 2.16703 29.059 1.68303 29.037V30.533C1.68303 30.775 1.70503 30.9546 1.74903 31.072C1.79303 31.1893 1.84436 31.248 1.90303 31.248H2.20003C2.6107 31.248 2.92236 31.149 3.13503 30.951C3.3477 30.753 3.45403 30.5073 3.45403 30.214ZM7.99471 26.265C8.02404 26.199 8.09738 26.166 8.21471 26.166C8.32471 26.166 8.39438 26.2026 8.42371 26.276C8.46038 26.4373 8.53004 26.661 8.63271 26.947C8.74271 27.233 8.87104 27.5556 9.01771 27.915C9.16438 28.267 9.31471 28.63 9.46871 29.004C9.63004 29.3706 9.78404 29.7226 9.93071 30.06C10.0847 30.39 10.2167 30.6723 10.3267 30.907C10.4147 31.0903 10.4954 31.2076 10.5687 31.259C10.642 31.303 10.7557 31.325 10.9097 31.325C10.9537 31.325 10.9757 31.369 10.9757 31.457C10.9757 31.4936 10.972 31.5303 10.9647 31.567C10.9574 31.6036 10.9427 31.622 10.9207 31.622C10.6934 31.622 10.5027 31.6183 10.3487 31.611C10.1947 31.6036 10.0334 31.6 9.86471 31.6C9.72538 31.6 9.55671 31.6036 9.35871 31.611C9.16071 31.6183 8.93338 31.622 8.67671 31.622C8.64738 31.622 8.62904 31.6073 8.62171 31.578C8.61438 31.5413 8.61071 31.5083 8.61071 31.479C8.61071 31.3836 8.63271 31.336 8.67671 31.336H9.20471C9.28538 31.336 9.32571 31.303 9.32571 31.237C9.32571 31.215 9.29638 31.1233 9.23771 30.962C9.17904 30.8006 9.10204 30.5953 9.00671 30.346C8.91871 30.0966 8.81971 29.829 8.70971 29.543H7.18071C7.02671 29.9243 6.89838 30.2543 6.79571 30.533C6.69304 30.8116 6.64171 31.0023 6.64171 31.105C6.64171 31.193 6.65638 31.2516 6.68571 31.281C6.71504 31.3103 6.74438 31.325 6.77371 31.325H7.22471C7.28338 31.325 7.31271 31.369 7.31271 31.457C7.31271 31.4936 7.30538 31.5303 7.29071 31.567C7.28338 31.6036 7.26871 31.622 7.24671 31.622C7.06338 31.622 6.91671 31.6183 6.80671 31.611C6.70404 31.611 6.60871 31.6073 6.52071 31.6C6.44004 31.6 6.34471 31.6 6.23471 31.6C6.10271 31.6 5.97071 31.6036 5.83871 31.611C5.71404 31.6183 5.55638 31.622 5.36571 31.622C5.33638 31.622 5.31438 31.6073 5.29971 31.578C5.29238 31.5413 5.28871 31.5083 5.28871 31.479C5.28871 31.3836 5.31438 31.336 5.36571 31.336H5.71771C5.79838 31.336 5.85704 31.303 5.89371 31.237C5.96704 31.1196 6.06971 30.9143 6.20171 30.621C6.34104 30.3203 6.49504 29.972 6.66371 29.576C6.83238 29.18 7.00104 28.773 7.16971 28.355C7.34571 27.937 7.50704 27.5446 7.65371 27.178C7.80038 26.804 7.91404 26.4996 7.99471 26.265ZM8.56671 29.169C8.46404 28.8683 8.36138 28.5713 8.25871 28.278C8.16338 27.9846 8.07538 27.7243 7.99471 27.497H7.96171C7.86638 27.7683 7.76371 28.0506 7.65371 28.344C7.54371 28.6373 7.43738 28.9123 7.33471 29.169H8.56671ZM13.1879 30.533C13.1879 30.775 13.2099 30.9583 13.2539 31.083C13.2979 31.2003 13.3492 31.259 13.4079 31.259H13.8699C13.8992 31.259 13.9212 31.281 13.9359 31.325C13.9506 31.369 13.9579 31.4093 13.9579 31.446C13.9579 31.4826 13.9506 31.5193 13.9359 31.556C13.9286 31.5853 13.9176 31.6 13.9029 31.6H12.7809C12.5756 31.6 12.4106 31.6 12.2859 31.6C12.1686 31.6073 12.0586 31.611 11.9559 31.611C11.8606 31.6183 11.7432 31.622 11.6039 31.622C11.5819 31.622 11.5636 31.6036 11.5489 31.567C11.5342 31.523 11.5269 31.4863 11.5269 31.457C11.5269 31.4203 11.5306 31.3836 11.5379 31.347C11.5526 31.3103 11.5672 31.292 11.5819 31.292H12.1209C12.2089 31.292 12.2529 31.2296 12.2529 31.105V27.497C12.2529 26.9176 12.1722 26.628 12.0109 26.628H11.6259C11.5452 26.628 11.5049 26.573 11.5049 26.463C11.5049 26.419 11.5122 26.3786 11.5269 26.342C11.5489 26.3053 11.5746 26.287 11.6039 26.287C11.6039 26.287 11.6992 26.2906 11.8899 26.298C12.0806 26.298 12.3262 26.3016 12.6269 26.309C12.9349 26.309 13.2576 26.309 13.5949 26.309C14.3136 26.309 14.8526 26.4593 15.2119 26.76C15.5786 27.0606 15.7619 27.4236 15.7619 27.849C15.7619 28.1203 15.6886 28.3586 15.5419 28.564C15.4026 28.7693 15.2156 28.9343 14.9809 29.059C14.7462 29.1763 14.4932 29.246 14.2219 29.268C14.3686 29.3633 14.5006 29.488 14.6179 29.642C14.7426 29.7886 14.8819 29.9573 15.0359 30.148C15.1972 30.3313 15.3916 30.522 15.6189 30.72C15.8536 30.918 16.1542 31.1123 16.5209 31.303C16.4622 31.4203 16.3742 31.523 16.2569 31.611C16.1396 31.699 15.9966 31.743 15.8279 31.743C15.5786 31.743 15.3622 31.6733 15.1789 31.534C15.0029 31.3946 14.8489 31.2186 14.7169 31.006C14.5849 30.7933 14.4639 30.5733 14.3539 30.346C14.2512 30.1113 14.1449 29.8986 14.0349 29.708C13.9322 29.5173 13.8186 29.378 13.6939 29.29L13.1879 29.257V30.533ZM13.4079 26.639C13.2612 26.639 13.1879 26.76 13.1879 27.002V28.828C13.2906 28.85 13.3932 28.861 13.4959 28.861C13.7012 28.861 13.8956 28.8243 14.0789 28.751C14.2696 28.6703 14.4236 28.553 14.5409 28.399C14.6582 28.2376 14.7169 28.0433 14.7169 27.816C14.7169 27.6473 14.6729 27.4713 14.5849 27.288C14.5042 27.1046 14.3686 26.9506 14.1779 26.826C13.9872 26.7013 13.7306 26.639 13.4079 26.639ZM18.2809 31.6C18.0756 31.6 17.9106 31.6 17.7859 31.6C17.6686 31.6073 17.5586 31.611 17.4559 31.611C17.3606 31.6183 17.2432 31.622 17.1039 31.622C17.0819 31.622 17.0636 31.6036 17.0489 31.567C17.0342 31.523 17.0269 31.4863 17.0269 31.457C17.0269 31.4203 17.0306 31.3836 17.0379 31.347C17.0526 31.3103 17.0672 31.292 17.0819 31.292H17.6209C17.7089 31.292 17.7529 31.2296 17.7529 31.105V27.497C17.7529 26.9176 17.6722 26.628 17.5109 26.628H17.1259C17.0452 26.628 17.0049 26.573 17.0049 26.463C17.0049 26.419 17.0122 26.3786 17.0269 26.342C17.0489 26.3053 17.0746 26.287 17.1039 26.287C17.1039 26.287 17.1992 26.2906 17.3899 26.298C17.5806 26.298 17.8262 26.3016 18.1269 26.309C18.4349 26.309 18.7576 26.309 19.0949 26.309C19.5716 26.309 19.9676 26.375 20.2829 26.507C20.5982 26.6316 20.8329 26.7966 20.9869 27.002C21.1409 27.2073 21.2179 27.4273 21.2179 27.662C21.2179 27.8526 21.1592 28.0286 21.0419 28.19C20.9246 28.3513 20.7706 28.487 20.5799 28.597C20.3892 28.707 20.1876 28.784 19.9749 28.828V28.85C20.4589 28.938 20.8549 29.1103 21.1629 29.367C21.4782 29.6163 21.6359 29.8986 21.6359 30.214C21.6359 30.456 21.5369 30.6833 21.3389 30.896C21.1482 31.1086 20.8732 31.281 20.5139 31.413C20.1619 31.5376 19.7439 31.6 19.2599 31.6H18.2809ZM18.9079 26.639C18.7612 26.639 18.6879 26.76 18.6879 27.002V28.641C18.7466 28.6483 18.8052 28.6556 18.8639 28.663C18.9226 28.663 18.9849 28.663 19.0509 28.663C19.4249 28.663 19.7072 28.5676 19.8979 28.377C20.0886 28.1863 20.1839 27.97 20.1839 27.728C20.1839 27.5593 20.1436 27.3906 20.0629 27.222C19.9822 27.0533 19.8502 26.914 19.6669 26.804C19.4836 26.694 19.2306 26.639 18.9079 26.639ZM20.4589 30.214C20.4589 30.0233 20.4112 29.8436 20.3159 29.675C20.2206 29.5063 20.0446 29.3633 19.7879 29.246C19.5386 29.1286 19.1719 29.059 18.6879 29.037V30.533C18.6879 30.775 18.7099 30.9546 18.7539 31.072C18.7979 31.1893 18.8492 31.248 18.9079 31.248H19.2049C19.6156 31.248 19.9272 31.149 20.1399 30.951C20.3526 30.753 20.4589 30.5073 20.4589 30.214ZM24.2846 28.806C24.5193 28.7986 24.7429 28.7876 24.9556 28.773C25.1756 28.7583 25.3589 28.7436 25.5056 28.729C25.6523 28.707 25.7329 28.6923 25.7476 28.685L25.8246 28.223C25.8393 28.1863 25.8906 28.168 25.9786 28.168C26.0006 28.168 26.0299 28.1753 26.0666 28.19C26.1033 28.1973 26.1216 28.2156 26.1216 28.245C26.1069 28.3623 26.0959 28.476 26.0886 28.586C26.0813 28.6886 26.0776 28.8023 26.0776 28.927C26.0776 29.037 26.0813 29.158 26.0886 29.29C26.0959 29.4146 26.1069 29.5393 26.1216 29.664C26.1216 29.686 26.0996 29.7043 26.0556 29.719C26.0189 29.7263 25.9823 29.73 25.9456 29.73C25.9163 29.73 25.8869 29.7263 25.8576 29.719C25.8356 29.7116 25.8246 29.7006 25.8246 29.686L25.7366 29.213C25.7219 29.1983 25.6413 29.1836 25.4946 29.169C25.3553 29.1543 25.1793 29.1396 24.9666 29.125C24.7539 29.1103 24.5266 29.0993 24.2846 29.092V30.423C24.2846 30.731 24.3066 30.9473 24.3506 31.072C24.3946 31.1893 24.4459 31.248 24.5046 31.248H24.8566C25.2013 31.2406 25.5276 31.2076 25.8356 31.149C26.1509 31.0903 26.3819 31.0096 26.5286 30.907L26.5836 30.478C26.5909 30.456 26.6129 30.4413 26.6496 30.434C26.6936 30.4193 26.7303 30.412 26.7596 30.412C26.7963 30.412 26.8293 30.4156 26.8586 30.423C26.8879 30.4303 26.8989 30.4486 26.8916 30.478C26.8623 30.6686 26.8439 30.885 26.8366 31.127C26.8293 31.3616 26.8256 31.578 26.8256 31.776C26.8256 31.798 26.8073 31.8126 26.7706 31.82C26.7413 31.8273 26.7156 31.831 26.6936 31.831C26.6643 31.831 26.6276 31.8273 26.5836 31.82C26.5469 31.8126 26.5286 31.798 26.5286 31.776V31.6H24.5706C24.1233 31.6 23.7786 31.6 23.5366 31.6C23.2946 31.6073 23.1149 31.611 22.9976 31.611C22.8803 31.6183 22.7813 31.622 22.7006 31.622C22.6713 31.622 22.6493 31.6 22.6346 31.556C22.6273 31.512 22.6236 31.4753 22.6236 31.446C22.6236 31.4093 22.6273 31.3763 22.6346 31.347C22.6493 31.3103 22.6676 31.292 22.6896 31.292H23.1846C23.2653 31.292 23.3129 31.2736 23.3276 31.237C23.3423 31.2003 23.3496 31.1123 23.3496 30.973V27.508C23.3496 27.2 23.3276 26.9763 23.2836 26.837C23.2469 26.6976 23.1956 26.628 23.1296 26.628H22.7336C22.6456 26.628 22.6016 26.573 22.6016 26.463C22.6016 26.3456 22.6419 26.287 22.7226 26.287C22.8619 26.287 23.0306 26.2906 23.2286 26.298C23.4339 26.3053 23.6393 26.309 23.8446 26.309H26.1216V26.133C26.1216 26.111 26.1363 26.0963 26.1656 26.089C26.1949 26.0743 26.2243 26.067 26.2536 26.067C26.2829 26.067 26.3159 26.0743 26.3526 26.089C26.3966 26.0963 26.4186 26.111 26.4186 26.133C26.4186 26.331 26.4223 26.5473 26.4296 26.782C26.4443 27.0166 26.4663 27.2146 26.4956 27.376C26.5029 27.398 26.4919 27.4163 26.4626 27.431C26.4333 27.4383 26.4039 27.442 26.3746 27.442C26.3453 27.442 26.3049 27.4383 26.2536 27.431C26.2096 27.4163 26.1876 27.398 26.1876 27.376C26.1583 27.2733 26.1216 27.1633 26.0776 27.046C26.0409 26.9286 25.9786 26.848 25.8906 26.804C25.7513 26.7526 25.5789 26.7123 25.3736 26.683C25.1683 26.6536 24.8933 26.639 24.5486 26.639C24.4459 26.6463 24.3763 26.6793 24.3396 26.738C24.3029 26.7893 24.2846 26.8773 24.2846 27.002V28.806ZM29.4194 30.533C29.4194 30.775 29.4414 30.9583 29.4854 31.083C29.5294 31.2003 29.5807 31.259 29.6394 31.259H30.1014C30.1307 31.259 30.1527 31.281 30.1674 31.325C30.182 31.369 30.1894 31.4093 30.1894 31.446C30.1894 31.4826 30.182 31.5193 30.1674 31.556C30.16 31.5853 30.149 31.6 30.1344 31.6H29.0124C28.807 31.6 28.642 31.6 28.5174 31.6C28.4 31.6073 28.29 31.611 28.1874 31.611C28.092 31.6183 27.9747 31.622 27.8354 31.622C27.8134 31.622 27.795 31.6036 27.7804 31.567C27.7657 31.523 27.7584 31.4863 27.7584 31.457C27.7584 31.4203 27.762 31.3836 27.7694 31.347C27.784 31.3103 27.7987 31.292 27.8134 31.292H28.3524C28.4404 31.292 28.4844 31.2296 28.4844 31.105V27.497C28.4844 26.9176 28.4037 26.628 28.2424 26.628H27.8574C27.7767 26.628 27.7364 26.573 27.7364 26.463C27.7364 26.419 27.7437 26.3786 27.7584 26.342C27.7804 26.3053 27.806 26.287 27.8354 26.287C27.8354 26.287 27.9307 26.2906 28.1214 26.298C28.312 26.298 28.5577 26.3016 28.8584 26.309C29.1664 26.309 29.489 26.309 29.8264 26.309C30.545 26.309 31.084 26.4593 31.4434 26.76C31.81 27.0606 31.9934 27.4236 31.9934 27.849C31.9934 28.1203 31.92 28.3586 31.7734 28.564C31.634 28.7693 31.447 28.9343 31.2124 29.059C30.9777 29.1763 30.7247 29.246 30.4534 29.268C30.6 29.3633 30.732 29.488 30.8494 29.642C30.974 29.7886 31.1134 29.9573 31.2674 30.148C31.4287 30.3313 31.623 30.522 31.8504 30.72C32.085 30.918 32.3857 31.1123 32.7524 31.303C32.6937 31.4203 32.6057 31.523 32.4884 31.611C32.371 31.699 32.228 31.743 32.0594 31.743C31.81 31.743 31.5937 31.6733 31.4104 31.534C31.2344 31.3946 31.0804 31.2186 30.9484 31.006C30.8164 30.7933 30.6954 30.5733 30.5854 30.346C30.4827 30.1113 30.3764 29.8986 30.2664 29.708C30.1637 29.5173 30.05 29.378 29.9254 29.29L29.4194 29.257V30.533ZM29.6394 26.639C29.4927 26.639 29.4194 26.76 29.4194 27.002V28.828C29.522 28.85 29.6247 28.861 29.7274 28.861C29.9327 28.861 30.127 28.8243 30.3104 28.751C30.501 28.6703 30.655 28.553 30.7724 28.399C30.8897 28.2376 30.9484 28.0433 30.9484 27.816C30.9484 27.6473 30.9044 27.4713 30.8164 27.288C30.7357 27.1046 30.6 26.9506 30.4094 26.826C30.2187 26.7013 29.962 26.639 29.6394 26.639Z" fill="#C8A24A"/>
</svg>
